<svg id="Layer_1" data-name="Layer 1" xmlns="http://www.w3.org/2000/svg" viewBox="0 0 500 500"><rect id="BG" width="500" height="500" style="fill:#fff"/><path id="A" d="M164.11,246.27h-14.4l-17.2,27.67q-12.16,19.67-28.85,19.66a23.49,23.49,0,0,1-17.17-6.84,22.77,22.77,0,0,1-6.94-16.92A27.11,27.11,0,0,1,84.9,254,41.81,41.81,0,0,1,99.51,241.4a51.71,51.71,0,0,1,15.33-5.17,133.12,133.12,0,0,1,22.4-1.5h3.85l4.1-7q8.58-14.64,20.95-19.51,8-3.14,20.79-3.14a8.64,8.64,0,0,1,5.14,1.35,4.38,4.38,0,0,1,1.87,3.77,7.08,7.08,0,0,1-.62,2.61l-.47,1.11-8.94,20.81h5.3q5.82,0,5.82,4.69a6.1,6.1,0,0,1-2.39,4.85,8.77,8.77,0,0,1-5.82,2h-7.95l-7.81,18h9.82q5.82,0,5.82,4.63a6.19,6.19,0,0,1-2.39,4.91,8.81,8.81,0,0,1-5.82,2H166a11.76,11.76,0,0,1-7.3-2.15,6.68,6.68,0,0,1-2.83-5.58q0-2.66,2.13-7.53Zm-30.15,0h-4.41q-14.87,0-23.6,5.12a27,27,0,0,0-8.86,8.21,17.72,17.72,0,0,0-3.3,9.95A10.88,10.88,0,0,0,97,277.4a10.33,10.33,0,0,0,7.69,3.25q7.84,0,13.88-9.65Zm35.24-11.54,7.49-17.14a16.32,16.32,0,0,0-9.28,3.26q-3.76,2.93-8.6,10.6l-2.13,3.28Z" style="fill:#f9e2d7"/><path id="L" d="M210.21,264.7h24.54q6.6,0,6.6,4.62a5.87,5.87,0,0,1-2.31,4.94,10.43,10.43,0,0,1-6.47,1.77H204.13a9.36,9.36,0,0,1-6.08-1.82,6,6,0,0,1-2.24-4.89,17.11,17.11,0,0,1,1.51-5.35l21-51.66.57-1.41q2.38-5.82,7.64-5.82a5.22,5.22,0,0,1,3.72,1.46,4.64,4.64,0,0,1,1.53,3.48,9.72,9.72,0,0,1-.78,3.53l-.57,1.41Z" style="fill:#f9e2d7"/><path id="B" d="M330.71,247.24a16.41,16.41,0,0,1,4.85-.85A14.12,14.12,0,0,1,347,251.63q4.37,5.25,4.36,13.61,0,16.17-12.48,25.21a15.32,15.32,0,0,1-9.09,3.15H324a13.86,13.86,0,0,1-10.24-4.31,8.62,8.62,0,0,1-8,4.31,6.25,6.25,0,0,1-4.42-1.7,5.43,5.43,0,0,1-1.82-4.12,11.14,11.14,0,0,1,1-4.18l.67-1.64,26.41-67.71.67-1.7q2.85-6.78,8.79-6.79a6.58,6.58,0,0,1,4.57,1.67,5.31,5.31,0,0,1,1.85,4.09,10.82,10.82,0,0,1-1,4.18l-.67,1.7Zm-12.06,29.69q3,3.88,7.09,3.88a7.5,7.5,0,0,0,4.91-1.64,18.52,18.52,0,0,0,4.88-6.66,19,19,0,0,0,2.09-7.94,6.38,6.38,0,0,0-1.58-4.46,5.31,5.31,0,0,0-4.12-1.72q-5.76,0-9.21,8.54Z" style="fill:#ddc5c5"/><path id="Y" d="M404.88,254.84h6.55q7.15,0,7.16,5.12a6.55,6.55,0,0,1-2.51,5.47,11.14,11.14,0,0,1-7,2h-9.14A93.3,93.3,0,0,1,394,280.52q-7.44,14.4-21.66,14.4a20.31,20.31,0,0,1-14.5-5.53A18.08,18.08,0,0,1,352,275.68a19.21,19.21,0,0,1,3.19-10.62,20.21,20.21,0,0,1,8.38-7.4q6-2.82,17.66-2.82h9.19l1.64-4.15a19.69,19.69,0,0,1-7.67,1.78,14.75,14.75,0,0,1-9.79-3.13,10.14,10.14,0,0,1-3.75-8.15c0-2,.8-5.09,2.42-9.16l6.15-15.49.62-1.61q2.72-6.51,8.41-6.51a5.74,5.74,0,0,1,4.14,1.61,5.46,5.46,0,0,1,1.67,4.09,17.25,17.25,0,0,1-1.47,5.41l-5.53,13.77a19.81,19.81,0,0,0-1.35,4.32c-.11,1.88,1.05,2.82,3.5,2.82a10.59,10.59,0,0,0,5.3-1.56,7.25,7.25,0,0,0,3.44-3.51l7.56-18.83.57-1.61q2.64-6.51,8.4-6.51a5.69,5.69,0,0,1,4.15,1.64,5.47,5.47,0,0,1,1.66,4.06,11,11,0,0,1-.84,3.86l-.68,1.55Zm-18.45,12.55h-7.9q-13,0-13,8.29a6.13,6.13,0,0,0,6.54,6.51,9.92,9.92,0,0,0,7.31-3.28Q382.59,275.63,386.43,267.39Z" style="fill:#ddc5c5"/><path id="lady" class="zoom-in-out" d="M259.53,247a13.16,13.16,0,0,1-.88-3.69.6.6,0,0,1,.28-.6c.43-.32.82-.68,1.24-1a2.42,2.42,0,0,0,.84-1.55,21.58,21.58,0,0,0-.29-8.32,10.83,10.83,0,0,0-.67-2,6.17,6.17,0,0,1-.52-3.36c.07-.7.25-1.4.25-2.11,0-1.19-.11-2.39-.19-3.59-.06-.84-.13-1.68-.22-2.52a1.56,1.56,0,0,0-1.27-1.46c-.28-.07-.56-.13-.85-.18a2.66,2.66,0,0,1-2.16-2.12c-.12-.86-.14-1.74-.18-2.62a9.34,9.34,0,0,0-.95-3.69,3.43,3.43,0,0,0-2.76-2l-.17,0h-1.21a4.79,4.79,0,0,0-1.63.81,5.37,5.37,0,0,0-1.45,2.24c-.42,1.08-.81,2.17-1.23,3.24s-.81,1.89-2,2.15a2.21,2.21,0,0,0,1.59-.49c-.72.81-1.15,1.86-2.12,2.46a2.49,2.49,0,0,0,1.39-.91c.23-.26.42-.57.64-.85a.64.64,0,0,1,.7-.34,28.7,28.7,0,0,1-3.55,4.16l1.69-1.18a5.07,5.07,0,0,1-.34.75,2.51,2.51,0,0,1-1.22,1.12,2.78,2.78,0,0,0,1.69-1.12c-.08.39-.23.72-.33,1.07a1.87,1.87,0,0,1-1.62,1.42,4.12,4.12,0,0,0-.47.13l-.45.14c1.23-.29,2.62-.27,3.27-1.69,0,.25-.07.48-.1.71a3.87,3.87,0,0,1-.54,1.68,2.91,2.91,0,0,0-.48,1.59,4,4,0,0,1-.13,1c-.54,1.57-1.12,3.13-1.69,4.68a1,1,0,0,1-.2.3,12.62,12.62,0,0,0-2.1,2.91c-.85,1.6-1.67,3.21-2.53,4.8a21.25,21.25,0,0,1-1.43,2.32,4.57,4.57,0,0,0-1,1.6s0,.07-.06.1c-.48.55-1,1.1-1.46,1.64-.27-.18-.55-.39-.84-.58a.32.32,0,0,0-.5.1c-.13.19-.28.37-.4.56a45.66,45.66,0,0,0-3.52,6.67,14.18,14.18,0,0,0-1.11,3.41,1.09,1.09,0,0,0,.61,1.38,3.07,3.07,0,0,1,.39.23,24.44,24.44,0,0,0,4.44,1.8,25.63,25.63,0,0,1,4.37,1.73c.37.21.41.21.56-.2.26-.72.49-1.47.72-2.2.67-2.2,1.32-4.4,2-6.59.18-.59.46-1.14.67-1.71a1,1,0,0,0-.18-1s0-.1-.06-.15a7.31,7.31,0,0,0-.31-1,18.84,18.84,0,0,0-2.48-3.68,1.25,1.25,0,0,1-.32-1.35,4.71,4.71,0,0,1,.45-1.27,29.16,29.16,0,0,1,3.42-4.18,9.86,9.86,0,0,0,2.08-2.91,25.58,25.58,0,0,1,2.69-4.68c.34-.44.63-.92,1-1.43a5.35,5.35,0,0,1,.77,2.78,3.88,3.88,0,0,1-.62,1.78c-.73,1.31-1.5,2.59-2.19,3.92a8.76,8.76,0,0,0-1.05,3.06,10.88,10.88,0,0,0,.35,4.36,1.28,1.28,0,0,1,0,.7,18,18,0,0,0-1.17,6c0,1.33.06,2.68.19,4a8.22,8.22,0,0,1-.88,4.6c-.3.59-.64,1.18-1,1.8l1.29.17c.84.09.88.1,1.13-.72a25.17,25.17,0,0,0,.69-2.85,8.25,8.25,0,0,0-.24-4,9.89,9.89,0,0,1-.4-5.12,10.62,10.62,0,0,1,1-2.79l.66,1.29c.49,1,1,1.91,1.47,2.87a11.55,11.55,0,0,1,.91,4.86,32.75,32.75,0,0,0,.29,3.84c.3,1.88.72,3.73,1.12,5.59a8.34,8.34,0,0,1,.24,2.29,7.42,7.42,0,0,0,.07,1.63,7.5,7.5,0,0,1,.14,2,2.12,2.12,0,0,0,1.38,2.44.35.35,0,0,1,.16.23c.15.86.34,1.72.42,2.58s.07,1.86.11,2.78a6.51,6.51,0,0,0,.08,1.17,3.77,3.77,0,0,0,1.93,2.49,3.13,3.13,0,0,0,.92-3c-.17-.89-.43-1.77-.65-2.67-.09-.37-.16-.75-.24-1.12l.46-.16c-.57-3.61-.7-7.23-1-10.87l.14,0a5.63,5.63,0,0,0,3.46.35,8.85,8.85,0,0,0,3.55-1.45,2.26,2.26,0,0,0,1-1.42c.19-1.2.35-2.4.5-3.6.1-.75.17-1.49.25-2.24v-.61C260.91,250.57,260.21,248.76,259.53,247Zm-22.85-4.89a.4.4,0,0,1,.31.06,9.62,9.62,0,0,1,1.9,3.46s0,.06,0,.14a5.4,5.4,0,0,1-.86-.25l-4.27-2.05a.27.27,0,0,1-.15-.39,3.9,3.9,0,0,1,.87-1.31l.05,0c.42.65.51.69,1.28.54C236.11,242.22,236.39,242.12,236.68,242.06Zm13.13-25.27a2.69,2.69,0,0,0-.07-1.89.85.85,0,0,1,.21.16,8.68,8.68,0,0,1,.45,1C250.53,216.45,250.29,216.73,249.81,216.79Zm5.77,10.61c.41-1,.89-2,1.32-2.91a2.19,2.19,0,0,0,0,.26,40.41,40.41,0,0,0,.46,4.53,35,35,0,0,0,1.62,5.5c.3.83.57,1.67.84,2.52a2.22,2.22,0,0,1-.34,1.9.46.46,0,0,1-.29.16,8,8,0,0,1-.84.11.89.89,0,0,0-.76.49,6.22,6.22,0,0,0-.49,1.22,2.46,2.46,0,0,1-.35.88,3.25,3.25,0,0,0-.3.51c0-.38,0-.75,0-1.12-.09-1.14-.16-2.29-.3-3.42-.09-.73-.28-1.44-.41-2.16-.24-1.28-.43-2.57-.73-3.84A7.3,7.3,0,0,1,255.58,227.4ZM253.87,250a36.24,36.24,0,0,1,1.63-4.28.49.49,0,0,1,.11-.14,36.71,36.71,0,0,0-1.43,5C253.92,250.38,253.75,250.27,253.87,250Zm4.06-4.81c-.05,1.74-.05,3.48-.07,5.23a10.31,10.31,0,0,1-.12,1.58,1.89,1.89,0,0,1-1.44,1.45c-.71.19-1.21-.25-1.29-1a15.25,15.25,0,0,1,.21-3.7,33.92,33.92,0,0,1,1.48-5.79,2,2,0,0,1,.09-.22.91.91,0,0,1,.06-.11l1.28.48C258.06,243.76,258,244.45,257.93,245.14Zm.9,5.29a.24.24,0,0,1-.13-.18c-.14-1.6-.29-3.21-.41-4.81a10,10,0,0,1,0-1c.48,2.17.93,4.27,1.38,6.35C259.45,250.66,259.13,250.55,258.83,250.43Z" style="fill:#ddc5c5;"/><path id="F" d="M326.64,209.66a6.07,6.07,0,0,1-2.33,5.09,10.38,10.38,0,0,1-6.5,1.82h-1.56a11.71,11.71,0,0,0-6.88,1.77,13,13,0,0,0-4.24,6l-4.89,12h7.18c4.39,0,6.6,1.54,6.6,4.62a5.87,5.87,0,0,1-2.32,4.94,10.41,10.41,0,0,1-6.47,1.77h-9.56L282.11,281h0a20.13,20.13,0,0,1-18.66,12.57h-126c-4.27-3.83-3.83-8.27-1.39-10.73a6.26,6.26,0,0,1,4.45-1.84H264.21a6.93,6.93,0,0,0,6.42-4.32l11.84-29.11h-3.54q-6.6,0-6.6-4.52a6,6,0,0,1,2.32-5,10.29,10.29,0,0,1,6.47-1.79H287l6.6-16.27q3.33-8.12,8-11.51t12.45-3.41H320C324.43,205.08,326.64,206.61,326.64,209.66Z" style="fill:#f9e2d7"/></svg>